Coordinates
version=1
nRows=5
nColumns=63
inDegrees=yes

Units are S.I. units (second, meters, Newtons, ...)
If the header above contains a line with 'inDegrees', this indicates whether rotational values are in degrees (yes) or radians (no).

endheader
time	pelvis_tilt	pelvis_list	pelvis_rotation	pelvis_tx	pelvis_ty	pelvis_tz	hip_flexion_r	hip_adduction_r	hip_rotation_r	knee_angle_r	knee_angle_r_beta	ankle_angle_r	subtalar_angle_r	mtp_angle_r	hip_flexion_l	hip_adduction_l	hip_rotation_l	knee_angle_l	knee_angle_l_beta	ankle_angle_l	subtalar_angle_l	mtp_angle_l	L5_S1_Flex_Ext	L5_S1_Lat_Bending	L5_S1_axial_rotation	L4_L5_Flex_Ext	L4_L5_Lat_Bending	L4_L5_axial_rotation	L3_L4_Flex_Ext	L3_L4_Lat_Bending	L3_L4_axial_rotation	L2_L3_Flex_Ext	L2_L3_Lat_Bending	L2_L3_axial_rotation	L1_L2_Flex_Ext	L1_L2_Lat_Bending	L1_L2_axial_rotation	L1_T12_Flex_Ext	L1_T12_Lat_Bending	L1_T12_axial_rotation	Abs_r3	Abs_r2	Abs_r1	Abs_t1	Abs_t2	neck_flexion	neck_bending	neck_rotation	arm_flex_r	arm_add_r	arm_rot_r	elbow_flex_r	pro_sup_r	wrist_flex_r	wrist_dev_r	arm_flex_l	arm_add_l	arm_rot_l	elbow_flex_l	pro_sup_l	wrist_flex_l	wrist_dev_l
      3.93333333	     -1.93497136	      6.88021425	    102.21422537	      0.05221832	      0.89108167	      0.56634747	     -7.55790382	      2.69312078	      1.06336379	      5.11043968	      0.08919400	     26.54399168	    -11.27993337	      0.00000000	     -8.92596275	      0.26712700	      4.09939017	      0.61656991	      0.01076117	     30.89650141	     -2.04136630	      0.00000000	     -0.02321171	      0.24338838	     -1.01114320	     -0.04310648	      0.32370655	     -1.07433964	     -0.03813453	      0.59177451	     -1.07433964	     -0.02652867	      0.59177451	     -0.88475030	     -0.02155440	      0.49631759	     -0.82155385	     -0.01326317	      0.37700860	     -0.75835740	     -0.16579896	      2.75325804	     -5.62367511	      0.00000000	      0.00000000	     26.07720716	      2.77949985	     13.49175006	      9.94232871	    -11.97658761	    181.20430992	      0.73724350	      3.33014194	     -0.63446760	    -10.80528612	      1.21433577	    -19.06589917	     60.34905016	     27.30195621	     88.28567873	     -6.39925098	      8.74161481
      3.95000000	     -2.06068773	      6.90886346	    102.40706138	      0.05211961	      0.89117020	      0.56626059	     -7.80582017	      2.60600237	      1.13236061	      4.78039171	      0.08343357	     26.37477369	    -11.48784648	      0.00000000	     -9.00990490	      0.35565531	      3.92489310	      0.64244253	      0.01121274	     30.94454999	     -1.63335476	      0.00000000	     -0.01160174	      0.22335553	     -1.04090428	     -0.02154559	      0.29706286	     -1.10596080	     -0.01906050	      0.54306664	     -1.10596080	     -0.01325963	      0.54306664	     -0.91079125	     -0.01077338	      0.45546660	     -0.84573473	     -0.00662924	      0.34597772	     -0.78067821	     -0.08287008	      2.52664244	     -5.78919735	      0.00000000	      0.00000000	     26.29500815	      2.61232597	     13.65444251	      9.85727917	    -11.84215445	    181.42844612	      0.74414041	      3.32127523	     -0.46323424	    -10.76628612	      1.11316711	    -19.15097929	     60.09497150	     27.36311996	     88.30666875	     -6.80451281	      8.39036821
      3.96666667	     -2.16744710	      6.93399074	    102.44141436	      0.05231204	      0.89117137	      0.56607649	     -8.08584434	      2.55194475	      2.06631351	      4.36438041	      0.07617281	     25.84182784	    -12.70104390	      0.00000000	     -9.12248532	      0.43824074	      3.01960847	      0.69559446	      0.01214041	     31.03039528	     -0.59990085	      0.00000000	     -0.00362538	      0.20423164	     -1.03987772	     -0.00673269	      0.27162808	     -1.10487008	     -0.00595613	      0.49656881	     -1.10487008	     -0.00414344	      0.49656881	     -0.90989301	     -0.00336653	      0.41646916	     -0.84490065	     -0.00207154	      0.31635481	     -0.77990829	     -0.02589571	      2.31030917	     -5.78348793	      0.00000000	      0.00000000	     26.44505844	      2.49946032	     13.84423578	      9.76362112	    -11.71887179	    181.00188652	      0.76296998	      3.49422189	     -0.34967850	    -10.78596604	      0.98929610	    -19.24913955	     59.32365446	     27.56592518	     88.33447648	     -7.12981049	      8.12503869
      3.98333333	     -2.26845221	      6.91511296	    102.73833321	      0.05208401	      0.89105338	      0.56604600	     -8.25197632	      2.47660821	      1.12178196	      4.15223939	      0.07247025	     25.95625238	    -11.63334634	      0.00000000	     -9.17129028	      0.49639856	      3.70052500	      0.75466137	      0.01317133	     30.73126829	     -1.41137171	      0.00000000	      0.00284600	      0.18516334	     -1.10165528	      0.00528531	      0.24626724	     -1.17050873	      0.00467569	      0.45020613	     -1.17050873	      0.00325269	      0.45020613	     -0.96394837	      0.00264280	      0.37758507	     -0.89509491	      0.00162620	      0.28681801	     -0.82624146	      0.02032870	      2.09460469	     -6.12707615	      0.00000000	      0.00000000	     26.49716646	      2.43884412	     14.11099999	      9.76100590	    -11.57499892	    181.54990907	      0.75709241	      3.27809476	     -0.52746021	    -10.81256425	      0.89854835	    -19.37538300	     58.49258905	     27.90963424	     88.41899668	     -7.48360190	      7.99461071
      4.00000000	     -2.33473368	      6.90935828	    102.85850471	      0.05210078	      0.89097028	      0.56607409	     -8.42020148	      2.45647033	      1.27785169	      3.92001224	      0.06841712	     25.55868510	    -12.04756276	      0.00000000	     -9.23528104	      0.55498841	      5.09873982	      0.78975852	      0.01378389	     30.17658585	     -3.53379237	      0.00000000	      0.00051287	      0.17275925	     -1.10639797	      0.00095245	      0.22976980	     -1.17554785	      0.00084259	      0.42004684	     -1.17554785	      0.00058616	      0.42004684	     -0.96809823	      0.00047625	      0.35229066	     -0.89894835	      0.00029305	      0.26760408	     -0.82979848	      0.00366338	      1.95428717	     -6.15345361	      0.00000000	      0.00000000	     26.47383026	      2.20101596	     14.06239515	      9.71083003	    -11.49785256	    180.92055169	      0.76391808	      3.47071553	     -0.51599366	    -10.91208834	      1.25064123	    -19.45410030	     58.93028363	     28.08487174	     88.49009079	     -7.77003715	      7.85968491
